<svg width="485" height="485" viewBox="0 0 485 485" fill="none" xmlns="http://www.w3.org/2000/svg">
<rect width="485" height="485" rx="50" fill="url(#paint0_linear_317_11)"/>
<path d="M107.85 291.771C99.2923 291.771 91.8451 289.995 85.5078 286.443C79.1706 282.851 74.2663 277.785 70.7949 271.246C67.3639 264.667 65.6484 256.896 65.6484 247.936V244.969C65.6484 236.411 67.3034 228.843 70.6133 222.264C73.9635 215.644 78.7266 210.457 84.9023 206.703C91.0781 202.949 98.4245 201.072 106.941 201.072C112.915 201.072 118.506 201.92 123.713 203.615C128.96 205.311 133.643 207.894 137.76 211.365V232.678H124.621L122.805 219.297C121.473 218.328 120.02 217.501 118.445 216.814C116.871 216.128 115.156 215.604 113.299 215.24C111.482 214.877 109.505 214.695 107.365 214.695C102.36 214.695 98.0612 215.926 94.4688 218.389C90.8763 220.851 88.1113 224.342 86.1738 228.863C84.2767 233.344 83.3281 238.672 83.3281 244.848V247.936C83.3281 254.111 84.3372 259.46 86.3555 263.98C88.3737 268.501 91.2396 272.013 94.9531 274.516C98.6667 276.978 103.066 278.209 108.152 278.209C110.695 278.209 113.238 277.926 115.781 277.361C118.365 276.756 120.706 275.989 122.805 275.061L124.621 262.648H137.76V283.719C134.329 285.979 130.05 287.896 124.924 289.471C119.798 291.005 114.106 291.771 107.85 291.771ZM187.009 290.5L158.673 213.969L150.802 213V202.344H185.858V213L177.927 214.211L195.243 266.221L196.575 271.064H196.938L198.21 266.342L215.526 214.211L206.262 213V202.344H239.684V213L231.692 213.969L205.112 290.5H187.009ZM251.334 290.5V279.904L260.718 278.088V214.816L251.334 213V202.344H321.507V226.502H307.945L307.158 215.967H278.398V240.246H309.277V253.869H278.398V278.088L287.843 279.904V290.5H251.334ZM358.163 290.5V279.904L367.608 278.088V260.287L341.452 214.211L332.975 213V202.344H368.153V213L360.948 214.029L375.6 242.184L376.932 245.029L377.295 244.969L378.627 242.305L394.914 214.029L385.227 213V202.344H419.739V213L411.02 214.211L385.227 258.895V278.088L394.672 279.904V290.5H358.163Z" fill="white"/>
<defs>
<linearGradient id="paint0_linear_317_11" x1="211.852" y1="242.5" x2="485.435" y2="245.935" gradientUnits="userSpaceOnUse">
<stop stop-color="#5B21B6"/>
<stop offset="1" stop-color="#9821B6"/>
</linearGradient>
</defs>
</svg>
